<?xml version="1.0" standalone="no"?>
<!DOCTYPE svg PUBLIC "-//W3C//DTD SVG 20010904//EN"
 "http://www.w3.org/TR/2001/REC-SVG-20010904/DTD/svg10.dtd">
<svg version="1.0" xmlns="http://www.w3.org/2000/svg"
 width="219.000000pt" height="85.000000pt" viewBox="0 0 219.000000 85.000000"
 preserveAspectRatio="xMidYMid meet">

<g transform="translate(0.000000,85.000000) scale(0.100000,-0.100000)"
fill="#000000" stroke="none">
<path d="M83 821 c-108 -68 -105 -250 5 -314 77 -45 187 -12 223 67 36 80 20
174 -40 231 -26 24 -41 30 -94 33 -49 2 -69 -1 -94 -17z m127 -56 c38 -20 54
-76 41 -137 -17 -76 -83 -102 -138 -54 -25 22 -28 30 -28 91 0 61 3 69 28 91
33 28 56 30 97 9z"/>
<path d="M390 665 l0 -175 35 0 35 0 0 55 0 55 34 0 c118 0 181 72 145 167
-21 54 -65 73 -166 73 l-83 0 0 -175z m162 98 c44 -40 8 -103 -59 -103 l-33 0
0 60 0 60 37 0 c20 0 45 -7 55 -17z"/>
<path d="M700 665 l0 -175 115 0 115 0 0 30 0 30 -80 0 -80 0 0 40 0 40 75 0
75 0 0 35 0 35 -75 0 -75 0 0 40 0 40 80 0 80 0 0 30 0 30 -115 0 -115 0 0
-175z"/>
<path d="M990 665 l0 -175 35 0 34 0 3 111 3 111 75 -108 c67 -97 79 -109 108
-112 l32 -3 0 175 0 176 -35 0 -34 0 -3 -111 -3 -110 -74 110 c-70 104 -76
111 -108 111 l-33 0 0 -175z"/>
<path d="M10 185 l0 -175 35 0 35 0 0 55 0 55 38 0 c100 0 152 40 152 119 0
89 -46 121 -175 121 l-85 0 0 -175z m170 95 c43 -43 7 -104 -58 -98 l-37 3 -3
58 -3 57 41 0 c27 0 47 -7 60 -20z"/>
<path d="M393 340 c-40 -24 -59 -53 -72 -110 -27 -123 45 -222 159 -222 62 0
108 26 137 78 48 84 18 215 -57 255 -46 25 -125 25 -167 -1z m127 -55 c55 -28
63 -143 14 -192 -25 -24 -63 -30 -95 -13 -45 25 -63 114 -34 170 26 50 64 62
115 35z"/>
<path d="M700 185 l0 -175 110 0 110 0 0 30 0 30 -75 0 -75 0 0 145 0 145 -35
0 -35 0 0 -175z"/>
<path d="M970 185 l0 -175 35 0 35 0 0 175 0 175 -35 0 -35 0 0 -175z"/>
<path d="M1090 330 c0 -30 1 -30 55 -30 l55 0 0 -145 0 -145 35 0 35 0 0 145
0 145 55 0 c54 0 55 0 55 30 l0 30 -145 0 -145 0 0 -30z"/>
<path d="M1420 185 l0 -175 40 0 40 0 0 175 0 175 -40 0 -40 0 0 -175z"/>
<path d="M1632 340 c-122 -75 -98 -293 37 -328 81 -20 166 19 190 89 10 29 10
29 -30 29 -21 0 -39 -4 -39 -10 0 -17 -43 -50 -66 -50 -64 0 -94 39 -94 121 0
42 5 55 29 80 39 38 74 38 113 -2 24 -24 38 -29 64 -27 l34 3 -17 35 c-39 76
-147 105 -221 60z"/>
<path d="M1955 329 c-27 -24 -35 -39 -35 -66 0 -62 23 -80 140 -115 47 -14 62
-37 40 -63 -26 -31 -120 -10 -120 26 0 5 -16 9 -35 9 -38 0 -43 -11 -24 -53
20 -45 75 -64 167 -59 81 5 124 113 66 167 -15 14 -45 30 -68 35 -83 20 -110
45 -81 74 23 22 72 20 92 -4 22 -25 83 -28 83 -4 0 9 -15 31 -34 50 -31 31
-39 34 -95 34 -53 0 -64 -4 -96 -31z"/>
</g>
</svg>
