<svg width="670" height="143" viewBox="0 0 670 143" fill="none" xmlns="http://www.w3.org/2000/svg">
<path d="M87.7273 71.9091C87.7273 78.178 86.553 83.5473 84.2045 88.017C81.875 92.4678 78.6932 95.8769 74.6591 98.2443C70.6439 100.612 66.089 101.795 60.9943 101.795C55.8996 101.795 51.3352 100.612 47.3011 98.2443C43.286 95.858 40.1042 92.4394 37.7557 87.9886C35.4261 83.5189 34.2614 78.1591 34.2614 71.9091C34.2614 65.6402 35.4261 60.2803 37.7557 55.8295C40.1042 51.3598 43.286 47.9413 47.3011 45.5739C51.3352 43.2064 55.8996 42.0227 60.9943 42.0227C66.089 42.0227 70.6439 43.2064 74.6591 45.5739C78.6932 47.9413 81.875 51.3598 84.2045 55.8295C86.553 60.2803 87.7273 65.6402 87.7273 71.9091ZM77.1307 71.9091C77.1307 67.4962 76.4394 63.7746 75.0568 60.7443C73.6932 57.6951 71.7992 55.3939 69.375 53.8409C66.9508 52.2689 64.1572 51.483 60.9943 51.483C57.8314 51.483 55.0379 52.2689 52.6136 53.8409C50.1894 55.3939 48.286 57.6951 46.9034 60.7443C45.5398 63.7746 44.858 67.4962 44.858 71.9091C44.858 76.322 45.5398 80.053 46.9034 83.1023C48.286 86.1326 50.1894 88.4337 52.6136 90.0057C55.0379 91.5587 57.8314 92.3352 60.9943 92.3352C64.1572 92.3352 66.9508 91.5587 69.375 90.0057C71.7992 88.4337 73.6932 86.1326 75.0568 83.1023C76.4394 80.053 77.1307 76.322 77.1307 71.9091ZM97.6918 101V42.8182H119.51C123.98 42.8182 127.73 43.6515 130.76 45.3182C133.809 46.9848 136.11 49.2765 137.663 52.1932C139.235 55.0909 140.021 58.3864 140.021 62.0795C140.021 65.8106 139.235 69.125 137.663 72.0227C136.091 74.9205 133.771 77.2027 130.703 78.8693C127.635 80.517 123.857 81.3409 119.368 81.3409H104.908V72.6761H117.947C120.561 72.6761 122.701 72.2216 124.368 71.3125C126.035 70.4034 127.266 69.1534 128.061 67.5625C128.875 65.9716 129.283 64.1439 129.283 62.0795C129.283 60.0152 128.875 58.197 128.061 56.625C127.266 55.053 126.025 53.8314 124.339 52.9602C122.673 52.0701 120.523 51.625 117.891 51.625H108.232V101H97.6918ZM149.176 101V42.8182H187.017V51.6534H159.716V67.4489H185.057V76.2841H159.716V92.1648H187.244V101H149.176ZM245.582 42.8182V101H236.207L208.793 61.3693H208.31V101H197.77V42.8182H207.202L234.588 82.4773H235.099V42.8182H245.582ZM276.911 101V42.8182H298.729C303.198 42.8182 306.948 43.6515 309.979 45.3182C313.028 46.9848 315.329 49.2765 316.882 52.1932C318.454 55.0909 319.24 58.3864 319.24 62.0795C319.24 65.8106 318.454 69.125 316.882 72.0227C315.31 74.9205 312.99 77.2027 309.922 78.8693C306.854 80.517 303.075 81.3409 298.587 81.3409H284.126V72.6761H297.166C299.78 72.6761 301.92 72.2216 303.587 71.3125C305.253 70.4034 306.484 69.1534 307.28 67.5625C308.094 65.9716 308.501 64.1439 308.501 62.0795C308.501 60.0152 308.094 58.197 307.28 56.625C306.484 55.053 305.244 53.8314 303.558 52.9602C301.892 52.0701 299.742 51.625 297.109 51.625H287.45V101H276.911ZM380.384 71.9091C380.384 78.178 379.209 83.5473 376.861 88.017C374.531 92.4678 371.349 95.8769 367.315 98.2443C363.3 100.612 358.745 101.795 353.651 101.795C348.556 101.795 343.991 100.612 339.957 98.2443C335.942 95.858 332.76 92.4394 330.412 87.9886C328.082 83.5189 326.918 78.1591 326.918 71.9091C326.918 65.6402 328.082 60.2803 330.412 55.8295C332.76 51.3598 335.942 47.9413 339.957 45.5739C343.991 43.2064 348.556 42.0227 353.651 42.0227C358.745 42.0227 363.3 43.2064 367.315 45.5739C371.349 47.9413 374.531 51.3598 376.861 55.8295C379.209 60.2803 380.384 65.6402 380.384 71.9091ZM369.787 71.9091C369.787 67.4962 369.096 63.7746 367.713 60.7443C366.349 57.6951 364.455 55.3939 362.031 53.8409C359.607 52.2689 356.813 51.483 353.651 51.483C350.488 51.483 347.694 52.2689 345.27 53.8409C342.846 55.3939 340.942 57.6951 339.56 60.7443C338.196 63.7746 337.514 67.4962 337.514 71.9091C337.514 76.322 338.196 80.053 339.56 83.1023C340.942 86.1326 342.846 88.4337 345.27 90.0057C347.694 91.5587 350.488 92.3352 353.651 92.3352C356.813 92.3352 359.607 91.5587 362.031 90.0057C364.455 88.4337 366.349 86.1326 367.713 83.1023C369.096 80.053 369.787 76.322 369.787 71.9091ZM390.348 101V42.8182H400.888V92.1648H426.513V101H390.348ZM446.2 42.8182V101H435.661V42.8182H446.2ZM455.057 51.6534V42.8182H501.477V51.6534H483.494V101H473.04V51.6534H455.057ZM520.966 42.8182V101H510.426V42.8182H520.966ZM582.18 62.4489H571.555C571.252 60.7064 570.694 59.1629 569.879 57.8182C569.065 56.4545 568.052 55.2992 566.839 54.3523C565.627 53.4053 564.245 52.6951 562.692 52.2216C561.158 51.7292 559.5 51.483 557.72 51.483C554.557 51.483 551.754 52.2784 549.311 53.8693C546.868 55.4413 544.955 57.7519 543.572 60.8011C542.19 63.8314 541.499 67.5341 541.499 71.9091C541.499 76.3598 542.19 80.1098 543.572 83.1591C544.974 86.1894 546.887 88.4811 549.311 90.0341C551.754 91.5682 554.548 92.3352 557.692 92.3352C559.434 92.3352 561.063 92.108 562.578 91.6534C564.112 91.1799 565.485 90.4886 566.697 89.5795C567.929 88.6705 568.961 87.553 569.794 86.2273C570.646 84.9015 571.233 83.3864 571.555 81.6818L582.18 81.7386C581.783 84.5038 580.921 87.0985 579.595 89.5227C578.288 91.947 576.574 94.0871 574.453 95.9432C572.332 97.7803 569.851 99.2197 567.01 100.261C564.169 101.284 561.016 101.795 557.55 101.795C552.436 101.795 547.872 100.612 543.857 98.2443C539.841 95.8769 536.679 92.4583 534.368 87.9886C532.057 83.5189 530.902 78.1591 530.902 71.9091C530.902 65.6402 532.067 60.2803 534.396 55.8295C536.726 51.3598 539.898 47.9413 543.913 45.5739C547.929 43.2064 552.474 42.0227 557.55 42.0227C560.788 42.0227 563.8 42.4773 566.584 43.3864C569.368 44.2955 571.849 45.6307 574.027 47.392C576.205 49.1345 577.995 51.2746 579.396 53.8125C580.817 56.3314 581.745 59.2102 582.18 62.4489ZM623.452 58.8125C623.187 56.3314 622.069 54.3996 620.099 53.017C618.149 51.6345 615.611 50.9432 612.486 50.9432C610.289 50.9432 608.404 51.2746 606.832 51.9375C605.26 52.6004 604.058 53.5 603.224 54.6364C602.391 55.7727 601.965 57.0701 601.946 58.5284C601.946 59.7405 602.221 60.7917 602.77 61.6818C603.338 62.572 604.105 63.3295 605.071 63.9545C606.037 64.5606 607.107 65.072 608.281 65.4886C609.455 65.9053 610.639 66.2557 611.832 66.5398L617.287 67.9034C619.484 68.4148 621.596 69.1061 623.622 69.9773C625.668 70.8485 627.495 71.947 629.105 73.2727C630.734 74.5985 632.022 76.1989 632.969 78.0739C633.916 79.9489 634.389 82.1458 634.389 84.6648C634.389 88.0739 633.518 91.0758 631.776 93.6705C630.033 96.2462 627.514 98.2633 624.219 99.7216C620.942 101.161 616.974 101.881 612.315 101.881C607.789 101.881 603.859 101.18 600.526 99.7784C597.211 98.3769 594.616 96.3314 592.741 93.642C590.885 90.9527 589.882 87.6761 589.73 83.8125H600.099C600.251 85.839 600.876 87.5246 601.974 88.8693C603.073 90.214 604.503 91.2178 606.264 91.8807C608.045 92.5436 610.033 92.875 612.23 92.875C614.522 92.875 616.529 92.5341 618.253 91.8523C619.995 91.1515 621.359 90.1856 622.344 88.9545C623.329 87.7045 623.83 86.2462 623.849 84.5795C623.83 83.0644 623.385 81.8144 622.514 80.8295C621.643 79.8258 620.421 78.9924 618.849 78.3295C617.296 77.6477 615.478 77.0417 613.395 76.5114L606.776 74.8068C601.984 73.5758 598.196 71.7102 595.412 69.2102C592.647 66.6913 591.264 63.3485 591.264 59.1818C591.264 55.7538 592.192 52.7519 594.048 50.1761C595.923 47.6004 598.471 45.6023 601.69 44.1818C604.91 42.7424 608.556 42.0227 612.628 42.0227C616.757 42.0227 620.374 42.7424 623.48 44.1818C626.605 45.6023 629.058 47.5814 630.838 50.1193C632.618 52.6383 633.537 55.536 633.594 58.8125H623.452Z" fill="white"/>
</svg>
