<svg width="323" height="143" viewBox="0 0 323 143" fill="none" xmlns="http://www.w3.org/2000/svg">
<path d="M27.0664 18.8666C12.6664 27.9332 13.0664 52.1999 27.7331 60.7332C37.9998 66.7332 52.6664 62.3332 57.4664 51.7999C62.2664 41.1332 60.1331 28.5999 52.1331 20.9999C48.6664 17.7999 46.6664 16.9999 39.5998 16.5999C33.0664 16.3332 30.3998 16.7332 27.0664 18.8666ZM43.9998 26.3332C49.0664 28.9999 51.1998 36.4666 49.4664 44.5999C47.1998 54.7332 38.3998 58.1999 31.0664 51.7999C27.7331 48.8666 27.3331 47.7999 27.3331 39.6666C27.3331 31.5332 27.7331 30.4666 31.0664 27.5332C35.4664 23.7999 38.5331 23.5332 43.9998 26.3332Z" fill="black"/>
<path d="M68 39.6667V63H72.6667H77.3333V55.6667V48.3333H81.8667C97.6 48.3333 106 38.7333 101.2 26.0667C98.4 18.8667 92.5333 16.3333 79.0667 16.3333H68V39.6667ZM89.6 26.6C95.4667 31.9333 90.6667 40.3333 81.7333 40.3333H77.3333V32.3333V24.3333H82.2667C84.9333 24.3333 88.2667 25.2667 89.6 26.6Z" fill="black"/>
<path d="M109.333 39.6667V63H124.666H140V59V55H129.333H118.666V49.6667V44.3333H128.666H138.666V39.6667V35H128.666H118.666V29.6667V24.3333H129.333H140V20.3333V16.3333H124.666H109.333V39.6667Z" fill="black"/>
<path d="M148 39.6666V63H152.667H157.2L157.6 48.2L158 33.4L168 47.8C176.933 60.7333 178.533 62.3333 182.4 62.7333L186.667 63.1333V39.8V16.3333H182H177.467L177.067 31.1333L176.667 45.8L166.8 31.1333C157.467 17.2666 156.667 16.3333 152.4 16.3333H148V39.6666Z" fill="black"/>
<path d="M17.333 103.667V127H21.9997H26.6663V119.667V112.333H31.733C45.0663 112.333 51.9997 107 51.9997 96.4667C51.9997 84.6 45.8663 80.3333 28.6663 80.3333H17.333V103.667ZM39.9997 91C45.733 96.7333 40.933 104.867 32.2663 104.067L27.333 103.667L26.933 95.9333L26.533 88.3333H31.9997C35.5997 88.3333 38.2663 89.2667 39.9997 91Z" fill="black"/>
<path d="M68.3998 82.9999C63.0665 86.1999 60.5332 90.0666 58.7998 97.6666C55.1998 114.067 64.7998 127.267 79.9998 127.267C88.2665 127.267 94.3998 123.8 98.2665 116.867C104.667 105.667 100.667 88.1999 90.6665 82.8666C84.5332 79.5333 73.9998 79.5333 68.3998 82.9999ZM85.3332 90.3333C92.6665 94.0666 93.7332 109.4 87.1998 115.933C83.8665 119.133 78.7998 119.933 74.5332 117.667C68.5332 114.333 66.1332 102.467 69.9998 94.9999C73.4665 88.3333 78.5332 86.7333 85.3332 90.3333Z" fill="black"/>
<path d="M109.333 103.667V127H124H138.666V123V119H128.666H118.666V99.6667V80.3333H114H109.333V103.667Z" fill="black"/>
<path d="M145.333 103.667V127H150H154.666V103.667V80.3333H150H145.333V103.667Z" fill="black"/>
<path d="M161.333 84.3333C161.333 88.3333 161.466 88.3333 168.666 88.3333H176V107.667V127H180.666H185.333V107.667V88.3333H192.666C199.866 88.3333 200 88.3333 200 84.3333V80.3333H180.666H161.333V84.3333Z" fill="black"/>
<path d="M205.333 103.667V127H210.666H216V103.667V80.3333H210.666H205.333V103.667Z" fill="black"/>
<path d="M233.599 83C217.333 93 220.533 122.067 238.533 126.733C249.333 129.4 260.666 124.2 263.866 114.867C265.199 111 265.199 111 259.866 111C257.066 111 254.666 111.533 254.666 112.333C254.666 114.6 248.933 119 245.866 119C237.333 119 233.333 113.8 233.333 102.867C233.333 97.2667 233.999 95.5333 237.199 92.2C242.399 87.1333 247.066 87.1333 252.266 92.4667C255.466 95.6667 257.333 96.3333 260.799 96.0667L265.333 95.6667L263.066 91C257.866 80.8667 243.466 77 233.599 83Z" fill="black"/>
<path d="M276.667 84.4667C273.067 87.6667 272 89.6667 272 93.2667C272 101.533 275.067 103.933 290.667 108.6C296.933 110.467 298.933 113.533 296 117C292.533 121.133 280 118.333 280 113.533C280 112.867 277.867 112.333 275.333 112.333C270.267 112.333 269.6 113.8 272.133 119.4C274.8 125.4 282.133 127.933 294.4 127.267C305.2 126.6 310.933 112.2 303.2 105C301.2 103.133 297.2 101 294.133 100.333C283.067 97.6667 279.467 94.3334 283.333 90.4667C286.4 87.5334 292.933 87.8001 295.6 91.0001C298.533 94.3334 306.667 94.7334 306.667 91.5334C306.667 90.3334 304.667 87.4001 302.133 84.8667C298 80.7334 296.933 80.3334 289.467 80.3334C282.4 80.3334 280.933 80.8667 276.667 84.4667Z" fill="black"/>
</svg>
