<svg width="689" height="143" viewBox="0 0 689 143" fill="none" xmlns="http://www.w3.org/2000/svg">
<path d="M97.7273 71.9091C97.7273 78.178 96.553 83.5473 94.2045 88.017C91.875 92.4678 88.6932 95.8769 84.6591 98.2443C80.6439 100.612 76.089 101.795 70.9943 101.795C65.8996 101.795 61.3352 100.612 57.3011 98.2443C53.286 95.858 50.1042 92.4394 47.7557 87.9886C45.4261 83.5189 44.2614 78.1591 44.2614 71.9091C44.2614 65.6402 45.4261 60.2803 47.7557 55.8295C50.1042 51.3598 53.286 47.9413 57.3011 45.5739C61.3352 43.2064 65.8996 42.0227 70.9943 42.0227C76.089 42.0227 80.6439 43.2064 84.6591 45.5739C88.6932 47.9413 91.875 51.3598 94.2045 55.8295C96.553 60.2803 97.7273 65.6402 97.7273 71.9091ZM87.1307 71.9091C87.1307 67.4962 86.4394 63.7746 85.0568 60.7443C83.6932 57.6951 81.7992 55.3939 79.375 53.8409C76.9508 52.2689 74.1572 51.483 70.9943 51.483C67.8314 51.483 65.0379 52.2689 62.6136 53.8409C60.1894 55.3939 58.286 57.6951 56.9034 60.7443C55.5398 63.7746 54.858 67.4962 54.858 71.9091C54.858 76.322 55.5398 80.053 56.9034 83.1023C58.286 86.1326 60.1894 88.4337 62.6136 90.0057C65.0379 91.5587 67.8314 92.3352 70.9943 92.3352C74.1572 92.3352 76.9508 91.5587 79.375 90.0057C81.7992 88.4337 83.6932 86.1326 85.0568 83.1023C86.4394 80.053 87.1307 76.322 87.1307 71.9091ZM107.692 101V42.8182H129.51C133.98 42.8182 137.73 43.6515 140.76 45.3182C143.809 46.9848 146.11 49.2765 147.663 52.1932C149.235 55.0909 150.021 58.3864 150.021 62.0795C150.021 65.8106 149.235 69.125 147.663 72.0227C146.091 74.9205 143.771 77.2027 140.703 78.8693C137.635 80.517 133.857 81.3409 129.368 81.3409H114.908V72.6761H127.947C130.561 72.6761 132.701 72.2216 134.368 71.3125C136.035 70.4034 137.266 69.1534 138.061 67.5625C138.875 65.9716 139.283 64.1439 139.283 62.0795C139.283 60.0152 138.875 58.197 138.061 56.625C137.266 55.053 136.025 53.8314 134.339 52.9602C132.673 52.0701 130.523 51.625 127.891 51.625H118.232V101H107.692ZM159.176 101V42.8182H197.017V51.6534H169.716V67.4489H195.057V76.2841H169.716V92.1648H197.244V101H159.176ZM255.582 42.8182V101H246.207L218.793 61.3693H218.31V101H207.77V42.8182H217.202L244.588 82.4773H245.099V42.8182H255.582ZM286.911 101V42.8182H308.729C313.198 42.8182 316.948 43.6515 319.979 45.3182C323.028 46.9848 325.329 49.2765 326.882 52.1932C328.454 55.0909 329.24 58.3864 329.24 62.0795C329.24 65.8106 328.454 69.125 326.882 72.0227C325.31 74.9205 322.99 77.2027 319.922 78.8693C316.854 80.517 313.075 81.3409 308.587 81.3409H294.126V72.6761H307.166C309.78 72.6761 311.92 72.2216 313.587 71.3125C315.253 70.4034 316.484 69.1534 317.28 67.5625C318.094 65.9716 318.501 64.1439 318.501 62.0795C318.501 60.0152 318.094 58.197 317.28 56.625C316.484 55.053 315.244 53.8314 313.558 52.9602C311.892 52.0701 309.742 51.625 307.109 51.625H297.45V101H286.911ZM390.384 71.9091C390.384 78.178 389.209 83.5473 386.861 88.017C384.531 92.4678 381.349 95.8769 377.315 98.2443C373.3 100.612 368.745 101.795 363.651 101.795C358.556 101.795 353.991 100.612 349.957 98.2443C345.942 95.858 342.76 92.4394 340.412 87.9886C338.082 83.5189 336.918 78.1591 336.918 71.9091C336.918 65.6402 338.082 60.2803 340.412 55.8295C342.76 51.3598 345.942 47.9413 349.957 45.5739C353.991 43.2064 358.556 42.0227 363.651 42.0227C368.745 42.0227 373.3 43.2064 377.315 45.5739C381.349 47.9413 384.531 51.3598 386.861 55.8295C389.209 60.2803 390.384 65.6402 390.384 71.9091ZM379.787 71.9091C379.787 67.4962 379.096 63.7746 377.713 60.7443C376.349 57.6951 374.455 55.3939 372.031 53.8409C369.607 52.2689 366.813 51.483 363.651 51.483C360.488 51.483 357.694 52.2689 355.27 53.8409C352.846 55.3939 350.942 57.6951 349.56 60.7443C348.196 63.7746 347.514 67.4962 347.514 71.9091C347.514 76.322 348.196 80.053 349.56 83.1023C350.942 86.1326 352.846 88.4337 355.27 90.0057C357.694 91.5587 360.488 92.3352 363.651 92.3352C366.813 92.3352 369.607 91.5587 372.031 90.0057C374.455 88.4337 376.349 86.1326 377.713 83.1023C379.096 80.053 379.787 76.322 379.787 71.9091ZM400.348 101V42.8182H410.888V92.1648H436.513V101H400.348ZM456.2 42.8182V101H445.661V42.8182H456.2ZM465.057 51.6534V42.8182H511.477V51.6534H493.494V101H483.04V51.6534H465.057ZM530.966 42.8182V101H520.426V42.8182H530.966ZM592.18 62.4489H581.555C581.252 60.7064 580.694 59.1629 579.879 57.8182C579.065 56.4545 578.052 55.2992 576.839 54.3523C575.627 53.4053 574.245 52.6951 572.692 52.2216C571.158 51.7292 569.5 51.483 567.72 51.483C564.557 51.483 561.754 52.2784 559.311 53.8693C556.868 55.4413 554.955 57.7519 553.572 60.8011C552.19 63.8314 551.499 67.5341 551.499 71.9091C551.499 76.3598 552.19 80.1098 553.572 83.1591C554.974 86.1894 556.887 88.4811 559.311 90.0341C561.754 91.5682 564.548 92.3352 567.692 92.3352C569.434 92.3352 571.063 92.108 572.578 91.6534C574.112 91.1799 575.485 90.4886 576.697 89.5795C577.929 88.6705 578.961 87.553 579.794 86.2273C580.646 84.9015 581.233 83.3864 581.555 81.6818L592.18 81.7386C591.783 84.5038 590.921 87.0985 589.595 89.5227C588.288 91.947 586.574 94.0871 584.453 95.9432C582.332 97.7803 579.851 99.2197 577.01 100.261C574.169 101.284 571.016 101.795 567.55 101.795C562.436 101.795 557.872 100.612 553.857 98.2443C549.841 95.8769 546.679 92.4583 544.368 87.9886C542.057 83.5189 540.902 78.1591 540.902 71.9091C540.902 65.6402 542.067 60.2803 544.396 55.8295C546.726 51.3598 549.898 47.9413 553.913 45.5739C557.929 43.2064 562.474 42.0227 567.55 42.0227C570.788 42.0227 573.8 42.4773 576.584 43.3864C579.368 44.2955 581.849 45.6307 584.027 47.392C586.205 49.1345 587.995 51.2746 589.396 53.8125C590.817 56.3314 591.745 59.2102 592.18 62.4489ZM633.452 58.8125C633.187 56.3314 632.069 54.3996 630.099 53.017C628.149 51.6345 625.611 50.9432 622.486 50.9432C620.289 50.9432 618.404 51.2746 616.832 51.9375C615.26 52.6004 614.058 53.5 613.224 54.6364C612.391 55.7727 611.965 57.0701 611.946 58.5284C611.946 59.7405 612.221 60.7917 612.77 61.6818C613.338 62.572 614.105 63.3295 615.071 63.9545C616.037 64.5606 617.107 65.072 618.281 65.4886C619.455 65.9053 620.639 66.2557 621.832 66.5398L627.287 67.9034C629.484 68.4148 631.596 69.1061 633.622 69.9773C635.668 70.8485 637.495 71.947 639.105 73.2727C640.734 74.5985 642.022 76.1989 642.969 78.0739C643.916 79.9489 644.389 82.1458 644.389 84.6648C644.389 88.0739 643.518 91.0758 641.776 93.6705C640.033 96.2462 637.514 98.2633 634.219 99.7216C630.942 101.161 626.974 101.881 622.315 101.881C617.789 101.881 613.859 101.18 610.526 99.7784C607.211 98.3769 604.616 96.3314 602.741 93.642C600.885 90.9527 599.882 87.6761 599.73 83.8125H610.099C610.251 85.839 610.876 87.5246 611.974 88.8693C613.073 90.214 614.503 91.2178 616.264 91.8807C618.045 92.5436 620.033 92.875 622.23 92.875C624.522 92.875 626.529 92.5341 628.253 91.8523C629.995 91.1515 631.359 90.1856 632.344 88.9545C633.329 87.7045 633.83 86.2462 633.849 84.5795C633.83 83.0644 633.385 81.8144 632.514 80.8295C631.643 79.8258 630.421 78.9924 628.849 78.3295C627.296 77.6477 625.478 77.0417 623.395 76.5114L616.776 74.8068C611.984 73.5758 608.196 71.7102 605.412 69.2102C602.647 66.6913 601.264 63.3485 601.264 59.1818C601.264 55.7538 602.192 52.7519 604.048 50.1761C605.923 47.6004 608.471 45.6023 611.69 44.1818C614.91 42.7424 618.556 42.0227 622.628 42.0227C626.757 42.0227 630.374 42.7424 633.48 44.1818C636.605 45.6023 639.058 47.5814 640.838 50.1193C642.618 52.6383 643.537 55.536 643.594 58.8125H633.452Z" fill="black"/>
</svg>
